<mxfile host="app.diagrams.net" modified="2023-09-15T15:59:40.132Z" agent="Mozilla/5.0 (Windows NT 10.0; Win64; x64) AppleWebKit/537.36 (KHTML, like Gecko) Chrome/116.0.0.0 Safari/537.36 Edg/116.0.1938.81" etag="wCzbs_vpS1IFD9aRHuFV" version="21.7.5" type="device" pages="3">
  <diagram name="Page-1" id="KmQgnTv5vvOI3r4hxGTt">
    <mxGraphModel dx="2366" dy="824" grid="1" gridSize="10" guides="0" tooltips="1" connect="1" arrows="1" fold="1" page="0" pageScale="1" pageWidth="850" pageHeight="1100" math="0" shadow="0">
      <root>
        <mxCell id="0" />
        <mxCell id="1" parent="0" />
        <mxCell id="98oBXOV-pdoTwL55DlCH-39" value="" style="group;movable=0;resizable=0;rotatable=0;deletable=0;editable=0;locked=1;connectable=0;" parent="1" vertex="1" connectable="0">
          <mxGeometry x="195.78" y="190" width="1310" height="710" as="geometry" />
        </mxCell>
        <mxCell id="98oBXOV-pdoTwL55DlCH-38" value="&lt;font style=&quot;font-size: 30px;&quot;&gt;Người dùng&lt;/font&gt;" style="swimlane;horizontal=0;whiteSpace=wrap;html=1;startSize=50;movable=0;resizable=0;rotatable=0;deletable=0;editable=0;locked=1;connectable=0;" parent="98oBXOV-pdoTwL55DlCH-39" vertex="1">
          <mxGeometry width="1270" height="710" as="geometry" />
        </mxCell>
        <mxCell id="98oBXOV-pdoTwL55DlCH-10" value="" style="group" parent="98oBXOV-pdoTwL55DlCH-38" vertex="1" connectable="0">
          <mxGeometry x="76.003125" y="30" width="201.5625" height="500" as="geometry" />
        </mxCell>
        <mxCell id="98oBXOV-pdoTwL55DlCH-1" value="Auth" style="rounded=0;whiteSpace=wrap;html=1;fillColor=#fff2cc;strokeColor=#d6b656;" parent="98oBXOV-pdoTwL55DlCH-10" vertex="1">
          <mxGeometry x="40.3125" y="60" width="120.9375" height="60" as="geometry" />
        </mxCell>
        <mxCell id="98oBXOV-pdoTwL55DlCH-2" value="Lấy danh sách game" style="rounded=0;whiteSpace=wrap;html=1;fillColor=#fff2cc;strokeColor=#d6b656;" parent="98oBXOV-pdoTwL55DlCH-10" vertex="1">
          <mxGeometry x="40.3125" y="180" width="120.9375" height="60" as="geometry" />
        </mxCell>
        <mxCell id="98oBXOV-pdoTwL55DlCH-3" value="Chi tiết game" style="rounded=0;whiteSpace=wrap;html=1;fillColor=#fff2cc;strokeColor=#d6b656;" parent="98oBXOV-pdoTwL55DlCH-10" vertex="1">
          <mxGeometry x="40.3125" y="300" width="120.9375" height="60" as="geometry" />
        </mxCell>
        <mxCell id="98oBXOV-pdoTwL55DlCH-4" value="Sử dụng được game" style="rounded=0;whiteSpace=wrap;html=1;fillColor=#fff2cc;strokeColor=#d6b656;" parent="98oBXOV-pdoTwL55DlCH-10" vertex="1">
          <mxGeometry x="40.3125" y="420" width="120.9375" height="60" as="geometry" />
        </mxCell>
        <mxCell id="98oBXOV-pdoTwL55DlCH-9" value="Giai đoạn 1&lt;br&gt;Cung cấp các thứ cơ bản" style="swimlane;whiteSpace=wrap;html=1;startSize=40;" parent="98oBXOV-pdoTwL55DlCH-10" vertex="1">
          <mxGeometry width="201.5625" height="500" as="geometry" />
        </mxCell>
        <mxCell id="98oBXOV-pdoTwL55DlCH-17" value="" style="group;movable=1;resizable=1;rotatable=1;deletable=1;editable=1;locked=0;connectable=1;" parent="98oBXOV-pdoTwL55DlCH-38" vertex="1" connectable="0">
          <mxGeometry x="317.878125" y="30" width="201.5625" height="500" as="geometry" />
        </mxCell>
        <mxCell id="98oBXOV-pdoTwL55DlCH-11" value="Giai đoạn 2&lt;br&gt;Các thông tin thêm" style="swimlane;whiteSpace=wrap;html=1;startSize=40;" parent="98oBXOV-pdoTwL55DlCH-17" vertex="1">
          <mxGeometry width="201.5625" height="500" as="geometry" />
        </mxCell>
        <mxCell id="98oBXOV-pdoTwL55DlCH-15" value="Xem được danh sách&lt;br&gt;tài khoản" style="rounded=0;whiteSpace=wrap;html=1;fillColor=#fff2cc;strokeColor=#d6b656;" parent="98oBXOV-pdoTwL55DlCH-11" vertex="1">
          <mxGeometry x="35.2734375" y="60" width="131.015625" height="60" as="geometry" />
        </mxCell>
        <mxCell id="98oBXOV-pdoTwL55DlCH-16" value="Chi tiết tài khoản&lt;br&gt;Mua tài khoản" style="rounded=0;whiteSpace=wrap;html=1;fillColor=#fff2cc;strokeColor=#d6b656;" parent="98oBXOV-pdoTwL55DlCH-11" vertex="1">
          <mxGeometry x="40.3125" y="180" width="120.9375" height="60" as="geometry" />
        </mxCell>
        <mxCell id="98oBXOV-pdoTwL55DlCH-12" value="Thông tin cơ bản&lt;br&gt;Banner, Logo, title, keyword" style="rounded=0;whiteSpace=wrap;html=1;fillColor=#fff2cc;strokeColor=#d6b656;" parent="98oBXOV-pdoTwL55DlCH-17" vertex="1">
          <mxGeometry x="37.2890625" y="300" width="120.9375" height="60" as="geometry" />
        </mxCell>
        <mxCell id="98oBXOV-pdoTwL55DlCH-13" value="Phần quà top nạp&lt;br&gt;Top nạp thẻ,&lt;br&gt;lịch sử top tháng trước" style="rounded=0;whiteSpace=wrap;html=1;fillColor=#fff2cc;strokeColor=#d6b656;movable=1;resizable=1;rotatable=1;deletable=1;editable=1;locked=0;connectable=1;" parent="98oBXOV-pdoTwL55DlCH-17" vertex="1">
          <mxGeometry x="30.234375" y="420" width="136.0546875" height="60" as="geometry" />
        </mxCell>
        <mxCell id="98oBXOV-pdoTwL55DlCH-18" value="" style="group" parent="98oBXOV-pdoTwL55DlCH-38" vertex="1" connectable="0">
          <mxGeometry x="559.753125" y="30" width="201.5625" height="500" as="geometry" />
        </mxCell>
        <mxCell id="98oBXOV-pdoTwL55DlCH-19" value="Giai đoạn 3" style="swimlane;whiteSpace=wrap;html=1;startSize=40;" parent="98oBXOV-pdoTwL55DlCH-18" vertex="1">
          <mxGeometry width="201.5625" height="500" as="geometry" />
        </mxCell>
        <mxCell id="98oBXOV-pdoTwL55DlCH-20" value="Gợi ý các game" style="rounded=0;whiteSpace=wrap;html=1;fillColor=#fff2cc;strokeColor=#d6b656;" parent="98oBXOV-pdoTwL55DlCH-19" vertex="1">
          <mxGeometry x="35.2734375" y="60" width="131.015625" height="60" as="geometry" />
        </mxCell>
        <mxCell id="98oBXOV-pdoTwL55DlCH-21" value="Thông tin của danh mục tài khoản" style="rounded=0;whiteSpace=wrap;html=1;fillColor=#fff2cc;strokeColor=#d6b656;" parent="98oBXOV-pdoTwL55DlCH-19" vertex="1">
          <mxGeometry x="40.3125" y="180" width="120.9375" height="60" as="geometry" />
        </mxCell>
        <mxCell id="98oBXOV-pdoTwL55DlCH-22" value="Thông tin thành viên" style="rounded=0;whiteSpace=wrap;html=1;fillColor=#fff2cc;strokeColor=#d6b656;" parent="98oBXOV-pdoTwL55DlCH-18" vertex="1">
          <mxGeometry x="37.2890625" y="300" width="120.9375" height="60" as="geometry" />
        </mxCell>
        <mxCell id="98oBXOV-pdoTwL55DlCH-23" value="Nạp thẻ&lt;br&gt;Rút tài sản&lt;br&gt;Mua tài sản" style="rounded=0;whiteSpace=wrap;html=1;fillColor=#e1d5e7;strokeColor=#9673a6;" parent="98oBXOV-pdoTwL55DlCH-18" vertex="1">
          <mxGeometry x="30.234375" y="420" width="136.0546875" height="60" as="geometry" />
        </mxCell>
        <mxCell id="98oBXOV-pdoTwL55DlCH-24" value="" style="group" parent="98oBXOV-pdoTwL55DlCH-38" vertex="1" connectable="0">
          <mxGeometry x="801.628125" y="30" width="201.5625" height="630" as="geometry" />
        </mxCell>
        <mxCell id="98oBXOV-pdoTwL55DlCH-25" value="Giai đoạn 4&lt;br&gt;Lịch sử hoạt động" style="swimlane;whiteSpace=wrap;html=1;startSize=40;" parent="98oBXOV-pdoTwL55DlCH-24" vertex="1">
          <mxGeometry width="201.5625" height="630" as="geometry" />
        </mxCell>
        <mxCell id="98oBXOV-pdoTwL55DlCH-26" value="Lịch sử nạp thẻ&lt;br&gt;Lịch sử mua" style="rounded=0;whiteSpace=wrap;html=1;fillColor=#fff2cc;strokeColor=#d6b656;" parent="98oBXOV-pdoTwL55DlCH-25" vertex="1">
          <mxGeometry x="35.2734375" y="60" width="131.015625" height="60" as="geometry" />
        </mxCell>
        <mxCell id="98oBXOV-pdoTwL55DlCH-27" value="Lịch sử dùng &lt;br&gt;dịch vụ game" style="rounded=0;whiteSpace=wrap;html=1;fillColor=#fff2cc;strokeColor=#d6b656;" parent="98oBXOV-pdoTwL55DlCH-25" vertex="1">
          <mxGeometry x="40.3125" y="180" width="120.9375" height="60" as="geometry" />
        </mxCell>
        <mxCell id="98oBXOV-pdoTwL55DlCH-36" value="Lịch sử biến động số dư" style="rounded=0;whiteSpace=wrap;html=1;fillColor=#f8cecc;strokeColor=#b85450;" parent="98oBXOV-pdoTwL55DlCH-25" vertex="1">
          <mxGeometry x="30.234375" y="540" width="136.0546875" height="60" as="geometry" />
        </mxCell>
        <mxCell id="98oBXOV-pdoTwL55DlCH-28" value="Lịch sử rút/mua &lt;br&gt;tài sản" style="rounded=0;whiteSpace=wrap;html=1;fillColor=#fff2cc;strokeColor=#d6b656;" parent="98oBXOV-pdoTwL55DlCH-24" vertex="1">
          <mxGeometry x="37.2890625" y="300" width="120.9375" height="60" as="geometry" />
        </mxCell>
        <mxCell id="98oBXOV-pdoTwL55DlCH-29" value="Lịch sử gamepass" style="rounded=0;whiteSpace=wrap;html=1;fillColor=#f8cecc;strokeColor=#b85450;" parent="98oBXOV-pdoTwL55DlCH-24" vertex="1">
          <mxGeometry x="30.234375" y="420" width="136.0546875" height="60" as="geometry" />
        </mxCell>
        <mxCell id="98oBXOV-pdoTwL55DlCH-30" value="" style="group" parent="98oBXOV-pdoTwL55DlCH-38" vertex="1" connectable="0">
          <mxGeometry x="1043.503125" y="30" width="201.5625" height="630" as="geometry" />
        </mxCell>
        <mxCell id="98oBXOV-pdoTwL55DlCH-31" value="Giai đoạn 5&lt;br&gt;Các chức năng thêm" style="swimlane;whiteSpace=wrap;html=1;startSize=40;" parent="98oBXOV-pdoTwL55DlCH-30" vertex="1">
          <mxGeometry width="201.5625" height="630" as="geometry" />
        </mxCell>
        <mxCell id="98oBXOV-pdoTwL55DlCH-32" value="Nhận quà tặng người mới" style="rounded=0;whiteSpace=wrap;html=1;fillColor=#e1d5e7;strokeColor=#9673a6;" parent="98oBXOV-pdoTwL55DlCH-31" vertex="1">
          <mxGeometry x="35.2734375" y="60" width="131.015625" height="60" as="geometry" />
        </mxCell>
        <mxCell id="98oBXOV-pdoTwL55DlCH-33" value="Quà tặng sự kiện" style="rounded=0;whiteSpace=wrap;html=1;fillColor=#e1d5e7;strokeColor=#9673a6;" parent="98oBXOV-pdoTwL55DlCH-31" vertex="1">
          <mxGeometry x="40.3125" y="180" width="120.9375" height="60" as="geometry" />
        </mxCell>
        <mxCell id="98oBXOV-pdoTwL55DlCH-34" value="Anti Spam curl&lt;br&gt;Block ip, recaptcha v3" style="rounded=0;whiteSpace=wrap;html=1;fillColor=#e1d5e7;strokeColor=#9673a6;" parent="98oBXOV-pdoTwL55DlCH-31" vertex="1">
          <mxGeometry x="33.76171875" y="300" width="134.0390625" height="60" as="geometry" />
        </mxCell>
        <mxCell id="98oBXOV-pdoTwL55DlCH-37" value="Đổi màu sắc" style="rounded=0;whiteSpace=wrap;html=1;fillColor=#f8cecc;strokeColor=#b85450;" parent="98oBXOV-pdoTwL55DlCH-31" vertex="1">
          <mxGeometry x="32.75390625" y="540" width="136.0546875" height="60" as="geometry" />
        </mxCell>
        <mxCell id="98oBXOV-pdoTwL55DlCH-35" value="Đường dẫn đến các social network khác" style="rounded=0;whiteSpace=wrap;html=1;fillColor=#e1d5e7;strokeColor=#9673a6;" parent="98oBXOV-pdoTwL55DlCH-30" vertex="1">
          <mxGeometry x="30.234375" y="420" width="136.0546875" height="60" as="geometry" />
        </mxCell>
        <mxCell id="98oBXOV-pdoTwL55DlCH-40" value="&lt;font style=&quot;font-size: 50px;&quot;&gt;&lt;b&gt;CÁC GIAI ĐOẠN PHÁT TRIỂN TÍNH NĂNG DỰ ÁN&lt;/b&gt;&lt;/font&gt;" style="text;html=1;strokeColor=none;fillColor=none;align=center;verticalAlign=middle;whiteSpace=wrap;rounded=0;" parent="1" vertex="1">
          <mxGeometry x="260" y="60" width="1190" height="70" as="geometry" />
        </mxCell>
        <mxCell id="98oBXOV-pdoTwL55DlCH-98" value="&lt;font style=&quot;font-size: 30px;&quot;&gt;ADMIN&lt;/font&gt;" style="swimlane;horizontal=0;whiteSpace=wrap;html=1;startSize=50;movable=0;resizable=0;rotatable=0;deletable=0;editable=0;locked=1;connectable=0;" parent="1" vertex="1">
          <mxGeometry x="-140" y="980" width="1990" height="840" as="geometry" />
        </mxCell>
        <mxCell id="98oBXOV-pdoTwL55DlCH-41" value="" style="group" parent="98oBXOV-pdoTwL55DlCH-98" vertex="1" connectable="0">
          <mxGeometry x="79.99812499999996" y="40" width="201.5625" height="630" as="geometry" />
        </mxCell>
        <mxCell id="98oBXOV-pdoTwL55DlCH-42" value="Giai đoạn 1&lt;br&gt;Bắt đầu" style="swimlane;whiteSpace=wrap;html=1;startSize=40;" parent="98oBXOV-pdoTwL55DlCH-41" vertex="1">
          <mxGeometry width="201.5625" height="630" as="geometry" />
        </mxCell>
        <mxCell id="98oBXOV-pdoTwL55DlCH-43" value="Auth2 cho admin" style="rounded=0;whiteSpace=wrap;html=1;fillColor=#fff2cc;strokeColor=#d6b656;" parent="98oBXOV-pdoTwL55DlCH-42" vertex="1">
          <mxGeometry x="35.2734375" y="60" width="131.015625" height="60" as="geometry" />
        </mxCell>
        <mxCell id="98oBXOV-pdoTwL55DlCH-44" value="Cấu hình phân quyền" style="rounded=0;whiteSpace=wrap;html=1;fillColor=#fff2cc;strokeColor=#d6b656;" parent="98oBXOV-pdoTwL55DlCH-42" vertex="1">
          <mxGeometry x="40.3125" y="180" width="120.9375" height="60" as="geometry" />
        </mxCell>
        <mxCell id="98oBXOV-pdoTwL55DlCH-45" value="Chỉnh sửa hàng loạt thông tin giống nhau của các website" style="rounded=0;whiteSpace=wrap;html=1;fillColor=#e1d5e7;strokeColor=#9673a6;" parent="98oBXOV-pdoTwL55DlCH-42" vertex="1">
          <mxGeometry x="32.75390625" y="540" width="136.0546875" height="60" as="geometry" />
        </mxCell>
        <mxCell id="98oBXOV-pdoTwL55DlCH-46" value="Hiển thị menu theo quyền" style="rounded=0;whiteSpace=wrap;html=1;fillColor=#e1d5e7;strokeColor=#9673a6;" parent="98oBXOV-pdoTwL55DlCH-41" vertex="1">
          <mxGeometry x="40.3125" y="300" width="120.9375" height="60" as="geometry" />
        </mxCell>
        <mxCell id="98oBXOV-pdoTwL55DlCH-47" value="(ADMIN) Chỉnh sửa thông tin của website" style="rounded=0;whiteSpace=wrap;html=1;fillColor=#fff2cc;strokeColor=#d6b656;" parent="98oBXOV-pdoTwL55DlCH-41" vertex="1">
          <mxGeometry x="32.75390625" y="420" width="136.0546875" height="60" as="geometry" />
        </mxCell>
        <mxCell id="98oBXOV-pdoTwL55DlCH-48" value="" style="group" parent="98oBXOV-pdoTwL55DlCH-98" vertex="1" connectable="0">
          <mxGeometry x="359.99812499999996" y="40" width="201.5625" height="630" as="geometry" />
        </mxCell>
        <mxCell id="98oBXOV-pdoTwL55DlCH-49" value="Giai đoạn 2&lt;br&gt;Quản lý dịch vụ(ADMIN)" style="swimlane;whiteSpace=wrap;html=1;startSize=40;" parent="98oBXOV-pdoTwL55DlCH-48" vertex="1">
          <mxGeometry width="201.5625" height="630" as="geometry" />
        </mxCell>
        <mxCell id="98oBXOV-pdoTwL55DlCH-50" value="Danh sách dịch vụ" style="rounded=0;whiteSpace=wrap;html=1;fillColor=#fff2cc;strokeColor=#d6b656;" parent="98oBXOV-pdoTwL55DlCH-49" vertex="1">
          <mxGeometry x="35.2734375" y="60" width="131.015625" height="60" as="geometry" />
        </mxCell>
        <mxCell id="98oBXOV-pdoTwL55DlCH-51" value="Kéo để thay đổi thứ tự dịch vụ" style="rounded=0;whiteSpace=wrap;html=1;fillColor=#e1d5e7;strokeColor=#9673a6;" parent="98oBXOV-pdoTwL55DlCH-49" vertex="1">
          <mxGeometry x="40.3125" y="180" width="120.9375" height="60" as="geometry" />
        </mxCell>
        <mxCell id="98oBXOV-pdoTwL55DlCH-52" value="CRUD các đơn vị tiền tệ" style="rounded=0;whiteSpace=wrap;html=1;fillColor=#f8cecc;strokeColor=#b85450;" parent="98oBXOV-pdoTwL55DlCH-49" vertex="1">
          <mxGeometry x="32.75390625" y="540" width="136.0546875" height="60" as="geometry" />
        </mxCell>
        <mxCell id="98oBXOV-pdoTwL55DlCH-53" value="Chế độ hiển thị&lt;br&gt;các dịch vụ(Ngoại trừ website nào đó)" style="rounded=0;whiteSpace=wrap;html=1;fillColor=#fff2cc;strokeColor=#d6b656;" parent="98oBXOV-pdoTwL55DlCH-48" vertex="1">
          <mxGeometry x="40.3125" y="300" width="120.9375" height="60" as="geometry" />
        </mxCell>
        <mxCell id="98oBXOV-pdoTwL55DlCH-54" value="CRUD Các loại game&lt;br&gt;(wheel,lucky box,...)" style="rounded=0;whiteSpace=wrap;html=1;fillColor=#f8cecc;strokeColor=#b85450;" parent="98oBXOV-pdoTwL55DlCH-48" vertex="1">
          <mxGeometry x="32.75390625" y="420" width="136.0546875" height="60" as="geometry" />
        </mxCell>
        <mxCell id="98oBXOV-pdoTwL55DlCH-55" value="" style="group" parent="98oBXOV-pdoTwL55DlCH-98" vertex="1" connectable="0">
          <mxGeometry x="639.998125" y="40" width="201.5625" height="750" as="geometry" />
        </mxCell>
        <mxCell id="98oBXOV-pdoTwL55DlCH-56" value="Giai đoạn 3&lt;br&gt;Chi tiết về các dịch vụ(ADMIN)" style="swimlane;whiteSpace=wrap;html=1;startSize=40;" parent="98oBXOV-pdoTwL55DlCH-55" vertex="1">
          <mxGeometry width="201.56" height="750" as="geometry" />
        </mxCell>
        <mxCell id="98oBXOV-pdoTwL55DlCH-57" value="Tạo dịch vụ mới" style="rounded=0;whiteSpace=wrap;html=1;fillColor=#fff2cc;strokeColor=#d6b656;" parent="98oBXOV-pdoTwL55DlCH-56" vertex="1">
          <mxGeometry x="35.2734375" y="300" width="131.015625" height="60" as="geometry" />
        </mxCell>
        <mxCell id="98oBXOV-pdoTwL55DlCH-58" value="CRUD tỷ lệ" style="rounded=0;whiteSpace=wrap;html=1;fillColor=#fff2cc;strokeColor=#d6b656;" parent="98oBXOV-pdoTwL55DlCH-56" vertex="1">
          <mxGeometry x="40.3125" y="420" width="120.9375" height="60" as="geometry" />
        </mxCell>
        <mxCell id="98oBXOV-pdoTwL55DlCH-62" value="CRUD Nhóm dịch vụ" style="rounded=0;whiteSpace=wrap;html=1;fillColor=#fff2cc;strokeColor=#d6b656;" parent="98oBXOV-pdoTwL55DlCH-56" vertex="1">
          <mxGeometry x="40.78125" y="60" width="120" height="60" as="geometry" />
        </mxCell>
        <mxCell id="98oBXOV-pdoTwL55DlCH-63" value="CRUD Hình ảnh dịch vụ" style="rounded=0;whiteSpace=wrap;html=1;fillColor=#f8cecc;strokeColor=#b85450;" parent="98oBXOV-pdoTwL55DlCH-56" vertex="1">
          <mxGeometry x="40.78125" y="180" width="120" height="60" as="geometry" />
        </mxCell>
        <mxCell id="98oBXOV-pdoTwL55DlCH-64" value="Cấu hình cho dịch vụ&lt;br&gt;Hiển thị, tỷ lệ, ảnh" style="rounded=0;whiteSpace=wrap;html=1;fillColor=#fff2cc;strokeColor=#d6b656;" parent="98oBXOV-pdoTwL55DlCH-56" vertex="1">
          <mxGeometry x="40.3125" y="660" width="120.9375" height="60" as="geometry" />
        </mxCell>
        <mxCell id="98oBXOV-pdoTwL55DlCH-60" value="CURD các loại quà" style="rounded=0;whiteSpace=wrap;html=1;fillColor=#f8cecc;strokeColor=#b85450;" parent="98oBXOV-pdoTwL55DlCH-55" vertex="1">
          <mxGeometry x="40.3125" y="540" width="120.9375" height="60" as="geometry" />
        </mxCell>
        <mxCell id="98oBXOV-pdoTwL55DlCH-65" value="" style="group" parent="98oBXOV-pdoTwL55DlCH-98" vertex="1" connectable="0">
          <mxGeometry x="920" y="40" width="201.56" height="750" as="geometry" />
        </mxCell>
        <mxCell id="98oBXOV-pdoTwL55DlCH-66" value="Giai đoạn 4&lt;br&gt;Các chức năng cơ bản 1(ADMIN)" style="swimlane;whiteSpace=wrap;html=1;startSize=40;" parent="98oBXOV-pdoTwL55DlCH-65" vertex="1">
          <mxGeometry width="201.56" height="750" as="geometry" />
        </mxCell>
        <mxCell id="98oBXOV-pdoTwL55DlCH-67" value="Quản lý người dùng" style="rounded=0;whiteSpace=wrap;html=1;horizontal=1;verticalAlign=middle;flipH=1;flipV=1;fillColor=#fff2cc;strokeColor=#d6b656;" parent="98oBXOV-pdoTwL55DlCH-66" vertex="1">
          <mxGeometry x="40.77999999999997" y="60" width="130" height="60" as="geometry" />
        </mxCell>
        <mxCell id="98oBXOV-pdoTwL55DlCH-69" value="Lịch sử rút" style="rounded=0;whiteSpace=wrap;html=1;horizontal=1;verticalAlign=middle;flipH=1;flipV=1;fillColor=#fff2cc;strokeColor=#d6b656;" parent="98oBXOV-pdoTwL55DlCH-66" vertex="1">
          <mxGeometry x="35.77999999999997" y="650" width="140" height="70" as="geometry" />
        </mxCell>
        <mxCell id="98oBXOV-pdoTwL55DlCH-72" value="Chi tiết hoạt động người dùng" style="rounded=0;whiteSpace=wrap;html=1;horizontal=1;verticalAlign=middle;flipH=1;flipV=1;fillColor=#fff2cc;strokeColor=#d6b656;" parent="98oBXOV-pdoTwL55DlCH-66" vertex="1">
          <mxGeometry x="45.77999999999997" y="170" width="120" height="70" as="geometry" />
        </mxCell>
        <mxCell id="98oBXOV-pdoTwL55DlCH-71" value="Lịch sử nạp thẻ" style="rounded=0;whiteSpace=wrap;html=1;horizontal=1;verticalAlign=middle;flipH=1;flipV=1;fillColor=#fff2cc;strokeColor=#d6b656;" parent="98oBXOV-pdoTwL55DlCH-66" vertex="1">
          <mxGeometry x="35.77999999999997" y="530" width="140" height="70" as="geometry" />
        </mxCell>
        <mxCell id="98oBXOV-pdoTwL55DlCH-70" value="Lịch sử mua hàng" style="rounded=0;whiteSpace=wrap;html=1;horizontal=1;verticalAlign=middle;flipH=1;flipV=1;fillColor=#fff2cc;strokeColor=#d6b656;" parent="98oBXOV-pdoTwL55DlCH-66" vertex="1">
          <mxGeometry x="45.77999999999997" y="410" width="120" height="70" as="geometry" />
        </mxCell>
        <mxCell id="98oBXOV-pdoTwL55DlCH-76" value="Quản lý admin, KOC, CTV" style="rounded=0;whiteSpace=wrap;html=1;horizontal=1;verticalAlign=middle;flipH=1;flipV=1;fillColor=#fff2cc;strokeColor=#d6b656;" parent="98oBXOV-pdoTwL55DlCH-66" vertex="1">
          <mxGeometry x="45.779999999999916" y="290" width="120" height="70" as="geometry" />
        </mxCell>
        <mxCell id="98oBXOV-pdoTwL55DlCH-73" value="" style="group" parent="98oBXOV-pdoTwL55DlCH-98" vertex="1" connectable="0">
          <mxGeometry x="1195.07" y="40" width="201.56" height="750" as="geometry" />
        </mxCell>
        <mxCell id="98oBXOV-pdoTwL55DlCH-74" value="Giai đoạn 5&lt;br&gt;Các chức năng cơ bản 2(ADMIN)" style="swimlane;whiteSpace=wrap;html=1;startSize=40;" parent="98oBXOV-pdoTwL55DlCH-73" vertex="1">
          <mxGeometry width="201.56" height="630" as="geometry" />
        </mxCell>
        <mxCell id="98oBXOV-pdoTwL55DlCH-75" value="Lịch sử tham gia event" style="rounded=0;whiteSpace=wrap;html=1;horizontal=1;verticalAlign=middle;flipH=1;flipV=1;fillColor=#d5e8d4;strokeColor=#82b366;" parent="98oBXOV-pdoTwL55DlCH-74" vertex="1">
          <mxGeometry x="35.77999999999997" y="60" width="130" height="60" as="geometry" />
        </mxCell>
        <mxCell id="98oBXOV-pdoTwL55DlCH-78" value="Lịch sử biến động số dư, các loại tiền tệ" style="rounded=0;whiteSpace=wrap;html=1;horizontal=1;verticalAlign=middle;flipH=1;flipV=1;fillColor=#fff2cc;strokeColor=#d6b656;" parent="98oBXOV-pdoTwL55DlCH-74" vertex="1">
          <mxGeometry x="40.77999999999997" y="170" width="120" height="70" as="geometry" />
        </mxCell>
        <mxCell id="98oBXOV-pdoTwL55DlCH-79" value="CRUD Các loại nạp thẻ" style="rounded=0;whiteSpace=wrap;html=1;horizontal=1;verticalAlign=middle;flipH=1;flipV=1;fillColor=#f8cecc;strokeColor=#b85450;" parent="98oBXOV-pdoTwL55DlCH-74" vertex="1">
          <mxGeometry x="30.779999999999973" y="530" width="140" height="70" as="geometry" />
        </mxCell>
        <mxCell id="98oBXOV-pdoTwL55DlCH-80" value="CRUD Events" style="rounded=0;whiteSpace=wrap;html=1;horizontal=1;verticalAlign=middle;flipH=1;flipV=1;fillColor=#d5e8d4;strokeColor=#82b366;" parent="98oBXOV-pdoTwL55DlCH-74" vertex="1">
          <mxGeometry x="40.77999999999997" y="410" width="120" height="70" as="geometry" />
        </mxCell>
        <mxCell id="98oBXOV-pdoTwL55DlCH-68" value="Lịch sử dịch vụ" style="rounded=0;whiteSpace=wrap;html=1;horizontal=1;verticalAlign=middle;flipH=1;flipV=1;fillColor=#fff2cc;strokeColor=#d6b656;" parent="98oBXOV-pdoTwL55DlCH-74" vertex="1">
          <mxGeometry x="40.78000000000003" y="290" width="120" height="70" as="geometry" />
        </mxCell>
        <mxCell id="98oBXOV-pdoTwL55DlCH-82" value="" style="group" parent="98oBXOV-pdoTwL55DlCH-98" vertex="1" connectable="0">
          <mxGeometry x="1480" y="40" width="201.56" height="750" as="geometry" />
        </mxCell>
        <mxCell id="98oBXOV-pdoTwL55DlCH-83" value="Giai đoạn 6&lt;br&gt;Các chức năng cơ bản 3(ADMIN)" style="swimlane;whiteSpace=wrap;html=1;startSize=40;" parent="98oBXOV-pdoTwL55DlCH-82" vertex="1">
          <mxGeometry width="201.56" height="630" as="geometry" />
        </mxCell>
        <mxCell id="98oBXOV-pdoTwL55DlCH-84" value="Xem top nạp thẻ" style="rounded=0;whiteSpace=wrap;html=1;horizontal=1;verticalAlign=middle;flipH=1;flipV=1;fillColor=#fff2cc;strokeColor=#d6b656;" parent="98oBXOV-pdoTwL55DlCH-83" vertex="1">
          <mxGeometry x="35.77999999999997" y="60" width="130" height="60" as="geometry" />
        </mxCell>
        <mxCell id="98oBXOV-pdoTwL55DlCH-85" value="Quản lý admin, KOC, CTV" style="rounded=0;whiteSpace=wrap;html=1;horizontal=1;verticalAlign=middle;flipH=1;flipV=1;fillColor=#fff2cc;strokeColor=#d6b656;" parent="98oBXOV-pdoTwL55DlCH-83" vertex="1">
          <mxGeometry x="40.77999999999997" y="290" width="120" height="70" as="geometry" />
        </mxCell>
        <mxCell id="98oBXOV-pdoTwL55DlCH-86" value="Thêm xóa top nạp ảo" style="rounded=0;whiteSpace=wrap;html=1;horizontal=1;verticalAlign=middle;flipH=1;flipV=1;fillColor=#fff2cc;strokeColor=#d6b656;" parent="98oBXOV-pdoTwL55DlCH-83" vertex="1">
          <mxGeometry x="40.77999999999997" y="170" width="120" height="70" as="geometry" />
        </mxCell>
        <mxCell id="98oBXOV-pdoTwL55DlCH-87" value="CRUD Các loại nạp thẻ" style="rounded=0;whiteSpace=wrap;html=1;horizontal=1;verticalAlign=middle;flipH=1;flipV=1;fillColor=#f8cecc;strokeColor=#b85450;" parent="98oBXOV-pdoTwL55DlCH-83" vertex="1">
          <mxGeometry x="30.779999999999973" y="530" width="140" height="70" as="geometry" />
        </mxCell>
        <mxCell id="98oBXOV-pdoTwL55DlCH-88" value="Quản lý tài khoản game" style="rounded=0;whiteSpace=wrap;html=1;horizontal=1;verticalAlign=middle;flipH=1;flipV=1;fillColor=#fff2cc;strokeColor=#d6b656;" parent="98oBXOV-pdoTwL55DlCH-83" vertex="1">
          <mxGeometry x="40.77999999999997" y="410" width="120" height="70" as="geometry" />
        </mxCell>
        <mxCell id="98oBXOV-pdoTwL55DlCH-89" value="" style="group" parent="98oBXOV-pdoTwL55DlCH-98" vertex="1" connectable="0">
          <mxGeometry x="1760" y="40" width="201.56" height="750" as="geometry" />
        </mxCell>
        <mxCell id="98oBXOV-pdoTwL55DlCH-90" value="Giai đoạn 7&lt;br&gt;Các chức năng phụ(ADMIN)" style="swimlane;whiteSpace=wrap;html=1;startSize=40;" parent="98oBXOV-pdoTwL55DlCH-89" vertex="1">
          <mxGeometry width="201.56" height="630" as="geometry" />
        </mxCell>
        <mxCell id="98oBXOV-pdoTwL55DlCH-91" value="CRUD Tin tức" style="rounded=0;whiteSpace=wrap;html=1;horizontal=1;verticalAlign=middle;flipH=1;flipV=1;fillColor=#e1d5e7;strokeColor=#9673a6;" parent="98oBXOV-pdoTwL55DlCH-90" vertex="1">
          <mxGeometry x="35.77999999999997" y="60" width="130" height="60" as="geometry" />
        </mxCell>
        <mxCell id="98oBXOV-pdoTwL55DlCH-92" value="Chỉnh sửa các plugin" style="rounded=0;whiteSpace=wrap;html=1;horizontal=1;verticalAlign=middle;flipH=1;flipV=1;" parent="98oBXOV-pdoTwL55DlCH-90" vertex="1">
          <mxGeometry x="40.77999999999997" y="290" width="120" height="70" as="geometry" />
        </mxCell>
        <mxCell id="98oBXOV-pdoTwL55DlCH-93" value="Số lượt quay ảo&lt;br&gt;của dịch vụ" style="rounded=0;whiteSpace=wrap;html=1;horizontal=1;verticalAlign=middle;flipH=1;flipV=1;fillColor=#e1d5e7;strokeColor=#9673a6;" parent="98oBXOV-pdoTwL55DlCH-90" vertex="1">
          <mxGeometry x="40.77999999999997" y="170" width="120" height="70" as="geometry" />
        </mxCell>
        <mxCell id="98oBXOV-pdoTwL55DlCH-95" value="CRUD Blacklist" style="rounded=0;whiteSpace=wrap;html=1;horizontal=1;verticalAlign=middle;flipH=1;flipV=1;fillColor=#e1d5e7;strokeColor=#9673a6;" parent="98oBXOV-pdoTwL55DlCH-90" vertex="1">
          <mxGeometry x="40.77999999999997" y="410" width="120" height="70" as="geometry" />
        </mxCell>
        <mxCell id="98oBXOV-pdoTwL55DlCH-137" value="Thống kê" style="rounded=0;whiteSpace=wrap;html=1;horizontal=1;verticalAlign=middle;flipH=1;flipV=1;fillColor=#6a00ff;fontColor=#ffffff;strokeColor=#3700CC;" parent="98oBXOV-pdoTwL55DlCH-90" vertex="1">
          <mxGeometry x="40.77999999999997" y="530" width="120" height="70" as="geometry" />
        </mxCell>
        <mxCell id="2n1mQ6zMXTsMzKGnb1sT-1" value="Phần quà top nạp" style="rounded=0;whiteSpace=wrap;html=1;fillColor=#e1d5e7;strokeColor=#9673a6;" parent="1" vertex="1">
          <mxGeometry x="550" y="750" width="120" height="60" as="geometry" />
        </mxCell>
        <mxCell id="2n1mQ6zMXTsMzKGnb1sT-2" value="socket lịch sử mua" style="rounded=0;whiteSpace=wrap;html=1;fillColor=#e1d5e7;strokeColor=#9673a6;" parent="1" vertex="1">
          <mxGeometry x="790" y="750" width="120" height="60" as="geometry" />
        </mxCell>
        <mxCell id="1U8qQWgXLgK6it5LtbHr-1" value="&lt;ol&gt;&lt;li&gt;&lt;b style=&quot;font-size: 18px; background-color: initial;&quot;&gt;ADMIN có thể thao tác mọi thứ&lt;/b&gt;&lt;br&gt;&lt;/li&gt;&lt;li&gt;&lt;span style=&quot;font-size: medium; background-color: initial;&quot;&gt;Support chỉ có thể xem&lt;/span&gt;&lt;b style=&quot;font-size: medium; background-color: initial;&quot;&gt; lịch sử mua/nạp/rút&lt;/b&gt;&lt;span style=&quot;font-size: medium; background-color: initial;&quot;&gt;, &lt;/span&gt;&lt;b style=&quot;font-size: medium; background-color: initial;&quot;&gt;duyệt nạp rút và cộng tiền&lt;/b&gt;&lt;span style=&quot;font-size: medium; background-color: initial;&quot;&gt; cho user, thao tác &lt;/span&gt;&lt;b style=&quot;font-size: medium; background-color: initial;&quot;&gt;top nạp thẻ&lt;/b&gt;&lt;span style=&quot;font-size: medium; background-color: initial;&quot;&gt;, &lt;/span&gt;&lt;b style=&quot;font-size: medium; background-color: initial;&quot;&gt;đăng tài khoản random&lt;/b&gt;&lt;br&gt;&lt;/li&gt;&lt;li&gt;&lt;span style=&quot;font-size: medium; background-color: initial;&quot;&gt;KOC xem quản lý khách và không được thao tác và xem được &lt;/span&gt;&lt;b style=&quot;font-size: medium; background-color: initial;&quot;&gt;thống kê&lt;/b&gt;&lt;span style=&quot;font-size: medium; background-color: initial;&quot;&gt;, lịch sử mua(ẩn thông tin private), lịch sử nạp(ẩn mã thẻ)&lt;/span&gt;&lt;br&gt;&lt;/li&gt;&lt;li&gt;&lt;span style=&quot;font-size: medium; background-color: initial;&quot;&gt;CTV &lt;/span&gt;&lt;b style=&quot;font-size: medium; background-color: initial;&quot;&gt;đăng được toàn bộ tài khoản&lt;/b&gt;&lt;span style=&quot;font-size: medium; background-color: initial;&quot;&gt;, xem tài khoản của bản thân đang bán, xem &lt;/span&gt;&lt;b style=&quot;font-size: medium; background-color: initial;&quot;&gt;lịch sử bán&lt;/b&gt;&lt;span style=&quot;font-size: medium; background-color: initial;&quot;&gt;,&lt;/span&gt;&lt;b style=&quot;font-size: medium; background-color: initial;&quot;&gt; lịch sử số dư&lt;/b&gt;&lt;span style=&quot;font-size: medium; background-color: initial;&quot;&gt;, &lt;/span&gt;&lt;b style=&quot;font-size: medium; background-color: initial;&quot;&gt;thống kê&lt;/b&gt;&lt;br&gt;&lt;/li&gt;&lt;/ol&gt;" style="shape=document;whiteSpace=wrap;html=1;boundedLbl=1;size=0.13793103448275862;align=left;" parent="1" vertex="1">
          <mxGeometry x="-610" y="1150" width="440" height="370" as="geometry" />
        </mxCell>
        <mxCell id="XmL61gbPPuLse7RtL1BE-1" value="Chưa làm&lt;br&gt;giao diện" style="rounded=0;whiteSpace=wrap;html=1;fillColor=#d5e8d4;strokeColor=#82b366;" parent="1" vertex="1">
          <mxGeometry x="-600" y="1580" width="120" height="60" as="geometry" />
        </mxCell>
        <mxCell id="tpThgFMRbVQzHm9a0kn--1" value="Làm sau&lt;br&gt;(Không quan trọng)" style="rounded=0;whiteSpace=wrap;html=1;fillColor=#e1d5e7;strokeColor=#9673a6;" parent="1" vertex="1">
          <mxGeometry x="-450" y="1580" width="120" height="60" as="geometry" />
        </mxCell>
        <mxCell id="tpThgFMRbVQzHm9a0kn--2" value="Không làm" style="rounded=0;whiteSpace=wrap;html=1;fillColor=#f8cecc;strokeColor=#b85450;" parent="1" vertex="1">
          <mxGeometry x="-300" y="1580" width="120" height="60" as="geometry" />
        </mxCell>
        <mxCell id="tpThgFMRbVQzHm9a0kn--3" value="Đã xong" style="rounded=0;whiteSpace=wrap;html=1;fillColor=#fff2cc;strokeColor=#d6b656;" parent="1" vertex="1">
          <mxGeometry x="-600" y="1670" width="120" height="60" as="geometry" />
        </mxCell>
      </root>
    </mxGraphModel>
  </diagram>
  <diagram id="SCwih8SE5_Bo1riZmGqV" name="Page-2">
    <mxGraphModel dx="49" dy="1080" grid="1" gridSize="10" guides="1" tooltips="1" connect="1" arrows="1" fold="1" page="0" pageScale="1" pageWidth="850" pageHeight="1100" math="0" shadow="0">
      <root>
        <mxCell id="0" />
        <mxCell id="1" parent="0" />
        <mxCell id="AxfoNS_7afsn7oHy-fW6-1" value="CLIENT" style="swimlane;whiteSpace=wrap;html=1;startSize=40;fontSize=14;" vertex="1" parent="1">
          <mxGeometry x="2320" y="360" width="640" height="1040" as="geometry" />
        </mxCell>
        <mxCell id="AxfoNS_7afsn7oHy-fW6-2" value="Đăng nhập" style="rounded=0;whiteSpace=wrap;html=1;fontSize=14;" vertex="1" parent="AxfoNS_7afsn7oHy-fW6-1">
          <mxGeometry x="260" y="215" width="120" height="60" as="geometry" />
        </mxCell>
        <mxCell id="AxfoNS_7afsn7oHy-fW6-3" style="edgeStyle=orthogonalEdgeStyle;rounded=0;orthogonalLoop=1;jettySize=auto;html=1;fontSize=14;" edge="1" parent="AxfoNS_7afsn7oHy-fW6-1" source="AxfoNS_7afsn7oHy-fW6-4" target="AxfoNS_7afsn7oHy-fW6-2">
          <mxGeometry relative="1" as="geometry">
            <Array as="points">
              <mxPoint x="220" y="150" />
              <mxPoint x="220" y="230" />
            </Array>
          </mxGeometry>
        </mxCell>
        <mxCell id="AxfoNS_7afsn7oHy-fW6-4" value="Đăng ký" style="rounded=0;whiteSpace=wrap;html=1;fontSize=14;" vertex="1" parent="AxfoNS_7afsn7oHy-fW6-1">
          <mxGeometry x="50" y="120" width="120" height="60" as="geometry" />
        </mxCell>
        <mxCell id="AxfoNS_7afsn7oHy-fW6-5" style="edgeStyle=orthogonalEdgeStyle;rounded=0;orthogonalLoop=1;jettySize=auto;html=1;fontSize=14;" edge="1" parent="AxfoNS_7afsn7oHy-fW6-1" source="AxfoNS_7afsn7oHy-fW6-6" target="AxfoNS_7afsn7oHy-fW6-2">
          <mxGeometry relative="1" as="geometry">
            <Array as="points">
              <mxPoint x="420" y="150" />
              <mxPoint x="420" y="230" />
            </Array>
          </mxGeometry>
        </mxCell>
        <mxCell id="AxfoNS_7afsn7oHy-fW6-6" value="Đăng nhập với Social network" style="rounded=0;whiteSpace=wrap;html=1;fontSize=14;" vertex="1" parent="AxfoNS_7afsn7oHy-fW6-1">
          <mxGeometry x="470" y="120" width="120" height="60" as="geometry" />
        </mxCell>
        <mxCell id="AxfoNS_7afsn7oHy-fW6-7" value="SERVER" style="swimlane;whiteSpace=wrap;html=1;startSize=40;fontSize=14;" vertex="1" parent="1">
          <mxGeometry x="2960" y="360" width="640" height="1040" as="geometry" />
        </mxCell>
        <mxCell id="OHCL7J_wHRiCov0E4fqy-1" value="Xử lý đăng ký" style="rounded=0;whiteSpace=wrap;html=1;" vertex="1" parent="AxfoNS_7afsn7oHy-fW6-7">
          <mxGeometry x="260" y="110" width="120" height="60" as="geometry" />
        </mxCell>
        <mxCell id="clG5GBl8NwM7qFgr2y49-4" value="Kiểm tra thông tin đăng nhập" style="rhombus;whiteSpace=wrap;html=1;" vertex="1" parent="AxfoNS_7afsn7oHy-fW6-7">
          <mxGeometry x="260" y="200" width="120" height="90" as="geometry" />
        </mxCell>
        <mxCell id="AxfoNS_7afsn7oHy-fW6-13" value="MEMCACHED" style="swimlane;whiteSpace=wrap;html=1;startSize=40;fontSize=14;" vertex="1" parent="1">
          <mxGeometry x="3600" y="360" width="640" height="1040" as="geometry" />
        </mxCell>
        <mxCell id="AxfoNS_7afsn7oHy-fW6-19" value="DATABASE(MYSQL)" style="swimlane;whiteSpace=wrap;html=1;startSize=40;fontSize=14;" vertex="1" parent="1">
          <mxGeometry x="4240" y="360" width="640" height="1040" as="geometry" />
        </mxCell>
        <mxCell id="OHCL7J_wHRiCov0E4fqy-3" value="Lưu thông tin user" style="rounded=0;whiteSpace=wrap;html=1;" vertex="1" parent="AxfoNS_7afsn7oHy-fW6-19">
          <mxGeometry x="260" y="110" width="120" height="60" as="geometry" />
        </mxCell>
        <mxCell id="OHCL7J_wHRiCov0E4fqy-2" style="edgeStyle=orthogonalEdgeStyle;rounded=0;orthogonalLoop=1;jettySize=auto;html=1;" edge="1" parent="1" source="AxfoNS_7afsn7oHy-fW6-4" target="OHCL7J_wHRiCov0E4fqy-1">
          <mxGeometry relative="1" as="geometry">
            <Array as="points">
              <mxPoint x="2430" y="440" />
              <mxPoint x="3280" y="440" />
            </Array>
          </mxGeometry>
        </mxCell>
        <mxCell id="OHCL7J_wHRiCov0E4fqy-4" style="edgeStyle=orthogonalEdgeStyle;rounded=0;orthogonalLoop=1;jettySize=auto;html=1;" edge="1" parent="1" source="OHCL7J_wHRiCov0E4fqy-1" target="OHCL7J_wHRiCov0E4fqy-3">
          <mxGeometry relative="1" as="geometry" />
        </mxCell>
        <mxCell id="clG5GBl8NwM7qFgr2y49-1" value="&lt;span style=&quot;font-size: 50px;&quot;&gt;&lt;b&gt;LUỒNG HOẠT ĐỘNG CỦA WEBSITE&lt;/b&gt;&lt;/span&gt;" style="text;html=1;strokeColor=none;fillColor=none;align=center;verticalAlign=middle;whiteSpace=wrap;rounded=0;flipH=0;" vertex="1" parent="1">
          <mxGeometry x="2910" y="150" width="1390" height="70" as="geometry" />
        </mxCell>
        <mxCell id="clG5GBl8NwM7qFgr2y49-3" style="edgeStyle=orthogonalEdgeStyle;rounded=0;orthogonalLoop=1;jettySize=auto;html=1;" edge="1" parent="1" source="AxfoNS_7afsn7oHy-fW6-2" target="clG5GBl8NwM7qFgr2y49-4">
          <mxGeometry relative="1" as="geometry">
            <mxPoint x="3220" y="599.9411764705881" as="targetPoint" />
            <Array as="points" />
          </mxGeometry>
        </mxCell>
        <mxCell id="clG5GBl8NwM7qFgr2y49-7" style="edgeStyle=orthogonalEdgeStyle;rounded=0;orthogonalLoop=1;jettySize=auto;html=1;" edge="1" parent="1" source="clG5GBl8NwM7qFgr2y49-4" target="AxfoNS_7afsn7oHy-fW6-2">
          <mxGeometry relative="1" as="geometry">
            <Array as="points">
              <mxPoint x="3280" y="680" />
              <mxPoint x="2640" y="680" />
            </Array>
          </mxGeometry>
        </mxCell>
        <mxCell id="clG5GBl8NwM7qFgr2y49-8" value="Thất bại thì đăng nhập lại" style="edgeLabel;html=1;align=center;verticalAlign=middle;resizable=0;points=[];" vertex="1" connectable="0" parent="clG5GBl8NwM7qFgr2y49-7">
          <mxGeometry x="-0.2579" relative="1" as="geometry">
            <mxPoint x="35" as="offset" />
          </mxGeometry>
        </mxCell>
      </root>
    </mxGraphModel>
  </diagram>
  <diagram id="F5hBBUGj-u5sih0so_mC" name="Page-3">
    <mxGraphModel dx="-607" dy="945" grid="1" gridSize="10" guides="1" tooltips="1" connect="1" arrows="1" fold="1" page="0" pageScale="1" pageWidth="850" pageHeight="1100" math="0" shadow="0">
      <root>
        <mxCell id="0" />
        <mxCell id="1" parent="0" />
        <mxCell id="4tLeP5GBYdPA_dszqiOH-1" value="&lt;span style=&quot;font-size: 50px;&quot;&gt;&lt;b&gt;CÁC DỊCH VỤ ĐƯỢC CACHE ĐỂ TỐI ƯU HIỆU NĂNG&lt;/b&gt;&lt;/span&gt;" style="text;html=1;strokeColor=none;fillColor=none;align=center;verticalAlign=middle;whiteSpace=wrap;rounded=0;flipH=0;" vertex="1" parent="1">
          <mxGeometry x="2880" y="30" width="1390" height="70" as="geometry" />
        </mxCell>
        <mxCell id="4tLeP5GBYdPA_dszqiOH-2" value="Danh sách dịch vụ" style="rounded=0;whiteSpace=wrap;html=1;flipH=0;flipV=0;" vertex="1" parent="1">
          <mxGeometry x="2745" y="170" width="300" height="150" as="geometry" />
        </mxCell>
        <mxCell id="4tLeP5GBYdPA_dszqiOH-3" value="Thông tin website" style="rounded=0;whiteSpace=wrap;html=1;flipH=0;flipV=0;" vertex="1" parent="1">
          <mxGeometry x="4105" y="170" width="300" height="150" as="geometry" />
        </mxCell>
        <mxCell id="4tLeP5GBYdPA_dszqiOH-4" value="Top nạp thẻ" style="rounded=0;whiteSpace=wrap;html=1;flipH=0;flipV=0;" vertex="1" parent="1">
          <mxGeometry x="3425" y="170" width="300" height="150" as="geometry" />
        </mxCell>
        <mxCell id="4tLeP5GBYdPA_dszqiOH-5" value="Top nạp thẻ tháng trước" style="rounded=0;whiteSpace=wrap;html=1;flipH=0;flipV=0;" vertex="1" parent="1">
          <mxGeometry x="3765" y="170" width="300" height="150" as="geometry" />
        </mxCell>
        <mxCell id="4tLeP5GBYdPA_dszqiOH-6" value="Chi tiết dịch vụ" style="rounded=0;whiteSpace=wrap;html=1;flipH=0;flipV=0;" vertex="1" parent="1">
          <mxGeometry x="3085" y="170" width="300" height="150" as="geometry" />
        </mxCell>
      </root>
    </mxGraphModel>
  </diagram>
</mxfile>
